<svg width="93" height="145" viewBox="0 0 93 145" fill="none" xmlns="http://www.w3.org/2000/svg">
<path d="M85.4299 112.754C84.6546 111.86 84.0463 110.834 83.7481 109.713C83.7123 109.594 83.6765 109.462 83.6527 109.343C81.9947 103.069 81.4103 98 80.7304 94.7795V6.40756C80.7304 3.35408 78.0944 0.873132 74.862 0.920843C74.5161 0.920843 74.1344 0.93277 73.7647 0.944698C59.9405 1.00434 28.8928 4.32022 20.4838 32.0401C20.4838 32.0401 20.4838 37.1809 25.9348 42.3217C25.9348 42.3217 15.3788 52.2694 9.84438 77.0789C9.66546 77.878 9.52233 78.6772 9.41498 79.4883C8.63969 85.0704 5.14489 109.105 1.19683 119.863C0.135272 122.762 1.81707 125.911 4.91826 126.805C9.71317 128.201 17.0129 129.728 25.9467 129.728C26.066 129.728 26.1853 129.728 26.3045 129.716C24.1337 135.023 22.8932 138.983 22.7262 139.27C21.6647 141.202 21.0564 145.556 39.2938 143.48C42.0848 143.158 44.852 142.645 47.5596 142.013C62.7077 138.482 76.0428 130.837 81.4341 127.473C83.4022 126.245 85.2868 123.978 86.4199 121.808C86.6465 121.366 86.8612 120.925 87.0282 120.496C87.9586 118.038 87.887 115.569 85.4299 112.754Z" fill="url(#paint0_linear_74_82)"/>
<path d="M58.7358 94.4933C54.1556 96.3063 48.9432 99.1332 43.5161 103.236C30.9205 112.731 23.1437 138.542 22.7262 139.294C21.6647 141.226 21.0563 145.579 39.2937 143.504C42.0848 143.182 44.852 142.669 47.5596 142.037C50.8397 129.465 63.7454 109.558 72.8581 96.5568C69.0413 93.5391 63.65 92.5491 58.7358 94.4933Z" fill="url(#paint1_linear_74_82)"/>
<path d="M85.4299 112.755C84.6546 111.86 84.0463 110.834 83.7481 109.713C83.7123 109.594 83.6765 109.463 83.6526 109.343C79.9074 95.1493 81.613 87.0624 75.4822 92.8473C74.6592 94.0043 73.7765 95.2448 72.8581 96.5568C63.7573 109.558 50.8516 129.453 47.5596 142.037C62.7077 138.506 76.0428 130.861 81.4341 127.497C83.4022 126.269 85.2867 124.002 86.4199 121.831C86.6465 121.39 86.8612 120.949 87.0282 120.519C87.9585 118.038 87.887 115.569 85.4299 112.755Z" fill="#616161"/>
<path opacity="0.7" d="M85.4299 112.755C84.6546 111.86 84.0463 110.834 83.7481 109.713C83.7123 109.594 83.6765 109.463 83.6527 109.343C79.9074 95.1493 81.613 87.0624 75.4822 92.8473C74.6592 94.0043 73.7766 95.2448 72.8581 96.5568C69.0413 93.5391 63.65 92.5491 58.7358 94.4933C54.1556 96.3063 48.9432 99.1332 43.5161 103.236C30.9205 112.731 23.1437 138.542 22.7262 139.294C21.6647 141.226 21.0563 145.579 39.2937 143.504C42.0848 143.182 44.852 142.669 47.5596 142.037C62.7077 138.506 76.0428 130.861 81.4341 127.497C83.4022 126.269 85.2867 124.002 86.4199 121.831C86.6465 121.39 86.8612 120.949 87.0282 120.519C87.9585 118.038 87.887 115.569 85.4299 112.755Z" fill="url(#paint2_radial_74_82)"/>
<path d="M74.1344 0.932861C60.4892 0.944789 28.9644 4.06983 20.4838 32.0402C20.4838 32.0402 20.4838 37.181 25.9348 42.3218C25.9348 42.3218 15.3788 52.2695 9.84438 77.079C9.66546 77.8781 9.52233 78.6773 9.41498 79.4884C8.63969 85.0705 5.14489 109.105 1.19683 119.863C0.135272 122.762 1.81707 125.911 4.91826 126.805C9.71317 128.201 17.0129 129.728 25.9467 129.728C42.3114 129.728 80.4919 119.446 80.4919 104.024V6.93247C80.4919 3.61658 77.6531 0.932861 74.1344 0.932861Z" fill="url(#paint3_linear_74_82)"/>
<path d="M75.7446 2.00621C75.7446 2.00621 92.1094 -3.13461 92.1094 22.5695V61.9069C92.1094 65.2943 92.3241 68.6818 92.6223 72.0573C93.1351 77.8422 92.1094 89.412 75.7446 89.412V2.00621Z" fill="#616161"/>
<path opacity="0.7" d="M80.7303 12.9797C80.7303 12.9797 86.5749 8.5068 86.5749 30.8592V68.813C86.5749 70.0177 86.6107 71.2105 86.6823 72.4152C86.9566 76.5779 87.2071 88.9469 80.7303 88.9469V12.9797Z" fill="url(#paint4_radial_74_82)"/>
<path d="M71.5461 1.04012C68.0155 4.98817 68.3256 14.8762 71.9516 25.0028C74.4326 31.9447 75.1601 39.3398 74.4206 46.6395C72.1902 68.8846 64.1867 110.894 35.2025 128.94C53.5234 126.352 80.7304 117.573 80.7304 104.536V6.40756C80.7304 3.35408 78.0943 0.873132 74.862 0.920843C73.86 0.920843 72.7508 0.956626 71.5461 1.04012Z" fill="url(#paint5_linear_74_82)"/>
<path d="M71.1763 29.9647C71.1763 29.9647 62.6599 22.7008 53.1774 21.4484C30.2167 18.4187 20.7342 32.5411 20.7342 32.5411C20.7342 32.5411 20.4599 37.3598 25.9108 42.5007L28.5349 42.942C48.5018 43.6696 63.7096 38.0994 70.8304 34.8193C72.8938 33.877 73.0966 31.1694 71.1763 29.9647Z" fill="url(#paint6_linear_74_82)"/>
<path d="M18.1698 93.2527C17.144 93.3839 16.8697 93.1692 17.6689 92.5609C20.0305 90.7598 34.8447 76.6494 36.9439 75.2658C38.3633 74.3235 20.6985 69.2781 12.3253 68.3358C11.538 70.8406 10.6912 73.4886 10.0113 76.3989C9.71311 77.699 9.48649 79.0111 9.29565 80.3231C9.03324 82.16 6.82662 95.996 6.81469 96.0438C4.46495 108.532 2.98592 114.46 1.56653 118.706C8.94974 113.959 13.0409 107.685 15.1879 102.878C16.0706 100.898 18.146 99.801 20.4003 99.5028C28.4992 98.4174 34.6896 98.2384 37.6238 97.0337C37.8147 96.9502 37.8385 96.6878 37.6596 96.5686C33.473 93.7536 27.0321 92.0957 18.1698 93.2527Z" fill="#BDBDBD"/>
<path opacity="0.2" d="M74.1344 4.51116C74.6115 4.51116 75.0767 4.63043 75.5418 4.88091C76.0547 5.15525 76.6273 5.28645 77.2117 5.28645C77.3787 5.28645 77.5338 5.27453 77.7008 5.25067C78.1301 5.19103 78.5715 5.16718 79.0009 5.16718C86.885 5.16718 88.543 14.6377 88.543 22.5696V61.907C88.543 64.9963 88.71 68.3122 89.0678 72.3676C89.7357 79.9178 86.6465 84.331 79.8954 85.4999C78.1779 85.7981 76.9254 87.289 76.9254 89.0305V93.7181C76.9254 94.0162 76.9612 94.3144 77.0328 94.6007C77.3071 95.6623 77.5576 97.189 77.8677 98.9543C78.3806 102.008 79.0247 105.801 80.2056 110.238L80.301 110.608C80.7184 112.206 81.5415 113.709 82.7461 115.092C84.2252 116.798 84.2252 117.824 83.6884 119.219C83.593 119.458 83.4499 119.768 83.259 120.15C82.3525 121.891 80.8616 123.609 79.5495 124.432C74.6115 127.521 61.5507 135.083 46.7723 138.518C43.9455 139.174 41.381 139.628 38.912 139.914C35.8585 140.26 33.1987 140.439 31.0278 140.439C28.535 140.439 27.0917 140.212 26.3045 140.009C26.3761 139.806 26.4596 139.568 26.5669 139.258C27.1275 137.66 28.1533 134.69 29.6442 131.052C30.0975 129.942 29.9663 128.678 29.2983 127.688C28.6304 126.71 27.5211 126.114 26.3403 126.114H26.3045H26.0779H25.9705C17.3349 126.114 10.3095 124.599 5.944 123.334C5.35955 123.167 4.9063 122.81 4.65582 122.321C4.51268 122.034 4.38148 121.593 4.58425 121.056C8.60387 110.142 12.039 86.8239 12.9932 79.9416C13.1006 79.1663 13.2199 78.4745 13.3749 77.8185C13.5777 76.9239 13.8043 75.9816 14.0787 74.8604C14.4842 73.2383 13.7208 71.5565 12.2299 70.7931C10.56 69.9462 10.1187 69.2664 10.0948 69.0994C10.059 68.837 10.3811 67.7754 12.3134 65.9624C12.4446 65.8431 15.4861 62.9566 19.8397 58.0425C20.0544 57.8039 20.2333 57.5296 20.3765 57.2314C24.5154 48.715 28.4157 44.9101 28.4395 44.8862C29.1552 44.2064 29.5607 43.2641 29.5607 42.286C29.5607 41.296 29.1552 40.3537 28.4395 39.6858C25.0879 36.525 24.3245 33.5192 24.1575 32.398C32.2206 7.26644 61.7415 4.52308 74.1344 4.51116ZM74.1344 0.932861C60.4891 0.944789 28.9644 4.06983 20.4838 32.0402C20.4838 32.0402 20.4838 37.181 25.9347 42.3218C25.9347 42.3218 21.6527 46.3653 17.1083 55.7046C12.8143 60.5592 9.80856 63.398 9.80856 63.398C4.52461 68.3718 6.06328 71.7473 10.56 74.0255C10.3095 75.0155 10.059 76.0293 9.83241 77.079C9.6535 77.8781 9.51037 78.6773 9.40302 79.4884C8.62772 85.0705 5.13292 109.105 1.18487 119.863C0.123309 122.762 1.80511 125.911 4.9063 126.805C9.70121 128.201 17.0009 129.728 25.9347 129.728C26.054 129.728 26.1733 129.728 26.2926 129.716C24.1217 135.024 22.8813 138.983 22.7143 139.27C21.8436 140.844 21.283 144.029 30.9801 144.029C33.1748 144.029 35.9063 143.862 39.2699 143.48C42.0609 143.158 44.8281 142.645 47.5357 142.013C62.6838 138.483 76.0189 130.837 81.4102 127.473C83.3783 126.245 85.2629 123.979 86.396 121.808C86.6226 121.366 86.8373 120.925 87.0043 120.496C87.9466 118.027 87.8631 115.558 85.406 112.743C84.6307 111.848 84.0224 110.822 83.7242 109.701C83.6884 109.582 83.6526 109.451 83.6288 109.331C81.78 102.33 81.2671 96.8192 80.468 93.7181V89.0305C92.2763 86.9909 93.0516 77.2221 92.5984 72.0574C92.3002 68.6819 92.0855 65.2945 92.0855 61.907V22.5815C92.0855 4.21297 83.7361 1.60081 78.9651 1.60081C78.2852 1.60081 77.6769 1.64852 77.1759 1.72009C76.2933 1.23105 75.2556 0.932861 74.1344 0.932861Z" fill="#424242"/>
<path d="M42.8005 27.7819C46.7009 28.8434 51.6986 31.9208 54.6805 40.3656C54.6805 40.3656 40.5462 46.4844 37.6239 58.8653C37.0633 61.2151 37.5881 63.6722 38.924 65.7237C40.3076 67.8588 42.0491 71.461 42.4665 76.5421C42.562 77.7826 41.4885 78.8203 40.1764 78.7965C30.5389 78.5579 -6.42489 75.0989 7.74516 61.7518C7.74516 61.7518 24.8136 50.4206 35.2026 30.8592C36.5862 28.2232 39.8305 26.9708 42.8005 27.7819Z" fill="url(#paint7_linear_74_82)"/>
<path d="M4.54846 67.5606C5.66966 77.3532 32.328 78.6056 40.4268 78.7965C41.4884 78.8203 42.1444 77.7349 41.6196 76.8642C36.0971 67.7634 15.2833 67 4.54846 67.5606Z" fill="url(#paint8_linear_74_82)"/>
<path d="M22.5115 70.9361C25.2429 71.2462 32.3518 72.2362 35.0832 74.6337C35.5603 75.0511 35.4291 75.8026 34.8208 76.0173C33.7592 76.4109 31.7792 76.8999 28.4991 76.9476C25.7558 76.9953 23.0959 75.6117 21.9747 73.2501C21.7839 72.8326 21.6288 72.3913 21.5334 71.9022C21.426 71.3655 21.927 70.8765 22.5115 70.9361Z" fill="#515151"/>
<path d="M9.7369 68.8488C9.7369 68.8488 12.6472 73.6914 15.5695 75.6594C15.5695 75.6594 12.9097 75.3374 10.8462 74.1685C9.51027 73.417 8.77076 71.9499 9.08088 70.4948C9.18822 69.9819 9.39099 69.4332 9.7369 68.8488Z" fill="#515151"/>
<path opacity="0.2" d="M38.1448 87.0889C39.9388 86.4926 41.1776 85.3606 40.9116 84.5605C40.6457 83.7604 38.9758 83.5951 37.1818 84.1914C35.3878 84.7877 34.1491 85.9197 34.415 86.7198C34.6809 87.5199 36.3509 87.6852 38.1448 87.0889Z" fill="#A1887F"/>
<path opacity="0.2" d="M44.0789 96.5257C44.8173 95.2557 44.8618 93.9041 44.1784 93.5068C43.495 93.1095 42.3425 93.8169 41.6042 95.0869C40.8659 96.3569 40.8213 97.7084 41.5047 98.1057C42.1881 98.503 43.3406 97.7956 44.0789 96.5257Z" fill="#A1887F"/>
<path opacity="0.2" d="M17.6357 87.9256C18.374 86.6556 18.4186 85.304 17.7352 84.9067C17.0518 84.5094 15.8993 85.2168 15.1609 86.4868C14.4226 87.7568 14.3781 89.1083 15.0615 89.5056C15.7449 89.9029 16.8974 89.1955 17.6357 87.9256Z" fill="#A1887F"/>
<path opacity="0.08" d="M50.1947 106.667C52.2715 105.65 53.6054 104.112 53.174 103.23C52.7426 102.349 50.7093 102.458 48.6325 103.474C46.5557 104.49 45.2218 106.029 45.6532 106.91C46.0845 107.792 48.1178 107.683 50.1947 106.667Z" fill="#A1887F"/>
<path opacity="0.08" d="M65.8636 21.8871C67.6624 21.007 68.8178 19.6747 68.4443 18.9114C68.0708 18.1482 66.3099 18.2429 64.5112 19.123C62.7124 20.0032 61.557 21.3354 61.9305 22.0987C62.304 22.862 64.0649 22.7672 65.8636 21.8871Z" fill="#A1887F"/>
<path opacity="0.08" d="M26.6439 65.866C28.4426 64.9859 29.598 63.6536 29.2245 62.8903C28.8511 62.1271 27.0901 62.2218 25.2914 63.1019C23.4927 63.9821 22.3373 65.3143 22.7108 66.0776C23.0843 66.8409 24.8452 66.7461 26.6439 65.866Z" fill="#A1887F"/>
<path opacity="0.08" d="M13.8513 83.8163C15.6381 82.942 16.7863 81.6192 16.4157 80.8619C16.0451 80.1045 14.2961 80.1994 12.5093 81.0737C10.7224 81.9481 9.57422 83.2708 9.9448 84.0282C10.3154 84.7855 12.0644 84.6907 13.8513 83.8163Z" fill="#A1887F"/>
<path opacity="0.08" d="M69.7948 109.86C71.2266 109.174 72.0921 108.002 71.728 107.242C71.3638 106.481 69.9078 106.42 68.476 107.106C67.0442 107.792 66.1786 108.964 66.5428 109.725C66.907 110.485 68.363 110.546 69.7948 109.86Z" fill="#A1887F"/>
<path opacity="0.08" d="M54.3909 95.6309C56.1436 94.7916 57.2023 93.355 56.7556 92.4222C56.3089 91.4895 54.526 91.4137 52.7733 92.253C51.0207 93.0923 49.962 94.5289 50.4086 95.4616C50.8553 96.3944 52.6383 96.4702 54.3909 95.6309Z" fill="#A1887F"/>
<path opacity="0.08" d="M51.3162 26.6961C52.7956 25.9876 53.6904 24.7776 53.3148 23.9933C52.9393 23.2091 51.4356 23.1476 49.9562 23.8561C48.4768 24.5645 47.582 25.7745 47.9576 26.5588C48.3331 27.343 49.8369 27.4045 51.3162 26.6961Z" fill="#A1887F"/>
<path opacity="0.08" d="M68.7092 99.1619C70.1352 98.4642 71.0517 97.4093 70.7564 96.8058C70.4611 96.2023 69.0658 96.2786 67.6398 96.9764C66.2138 97.6741 65.2973 98.729 65.5926 99.3325C65.8879 99.936 67.2832 99.8597 68.7092 99.1619Z" fill="#A1887F"/>
<path opacity="0.08" d="M24.9696 106.801C26.7745 106.176 28.0226 105.048 27.7572 104.282C27.4919 103.517 25.8136 103.403 24.0087 104.029C22.2038 104.655 20.9557 105.782 21.2211 106.548C21.4864 107.314 23.1647 107.427 24.9696 106.801Z" fill="#A1887F"/>
<path opacity="0.08" d="M35.6817 19.3168C37.4866 18.6911 38.7346 17.5634 38.4693 16.7978C38.2039 16.0323 36.5256 15.9189 34.7207 16.5445C32.9158 17.1702 31.6678 18.298 31.9331 19.0635C32.1985 19.829 33.8768 19.9424 35.6817 19.3168Z" fill="#A1887F"/>
<path opacity="0.08" d="M76.7448 52.2429C77.4004 51.7338 77.0116 50.1358 75.8764 48.6737C74.7411 47.2115 73.2893 46.4389 72.6337 46.9479C71.978 47.457 72.3668 49.0549 73.5021 50.5171C74.6374 51.9793 76.0892 52.7519 76.7448 52.2429Z" fill="#A1887F"/>
<path opacity="0.2" d="M62.9722 84.7461C65.3922 84.0805 67.1189 82.6862 66.8289 81.6318C66.5389 80.5774 64.342 80.2623 61.922 80.9279C59.5021 81.5935 57.7754 82.9878 58.0654 84.0422C58.3554 85.0965 60.5522 85.4117 62.9722 84.7461Z" fill="#A1887F"/>
<path opacity="0.2" d="M33.2613 114.011C33.2814 113.267 31.7656 112.623 29.8757 112.572C27.9859 112.521 26.4376 113.083 26.4176 113.827C26.3976 114.571 27.9134 115.215 29.8032 115.266C31.6931 115.317 33.2413 114.755 33.2613 114.011Z" fill="#A1887F"/>
<path opacity="0.2" d="M59.5158 120.436C61.2919 119.769 62.5422 118.723 62.3083 118.1C62.0745 117.477 60.445 117.513 58.6689 118.18C56.8927 118.847 55.6425 119.892 55.8763 120.515C56.1102 121.138 57.7396 121.102 59.5158 120.436Z" fill="#A1887F"/>
<path opacity="0.2" d="M52.1071 131.864C53.8832 131.197 55.1335 130.152 54.8996 129.529C54.6658 128.906 53.0363 128.941 51.2602 129.608C49.484 130.275 48.2338 131.321 48.4676 131.944C48.7015 132.567 50.3309 132.531 52.1071 131.864Z" fill="#A1887F"/>
<path opacity="0.2" d="M53.4385 81.1766C54.8113 79.7828 55.3955 78.1321 54.7431 77.4895C54.0908 76.847 52.4491 77.4561 51.0762 78.8498C49.7034 80.2436 49.1193 81.8944 49.7716 82.5369C50.4239 83.1794 52.0656 82.5704 53.4385 81.1766Z" fill="#A1887F"/>
<path opacity="0.2" d="M22.481 83.9144C23.1696 83.3412 22.6925 81.6329 21.4155 80.0988C20.1384 78.5647 18.545 77.7857 17.8564 78.3589C17.1678 78.9321 17.6449 80.6404 18.9219 82.1745C20.1989 83.7086 21.7924 84.4876 22.481 83.9144Z" fill="#A1887F"/>
<path opacity="0.08" d="M18.5039 114.353C20.2101 114.353 21.5932 113.637 21.5932 112.754C21.5932 111.872 20.2101 111.156 18.5039 111.156C16.7978 111.156 15.4147 111.872 15.4147 112.754C15.4147 113.637 16.7978 114.353 18.5039 114.353Z" fill="#A1887F"/>
<path opacity="0.2" d="M36.1995 124.372C36.4091 123.232 34.452 121.916 31.8281 121.434C29.2042 120.952 26.9072 121.485 26.6975 122.625C26.4879 123.765 28.4451 125.081 31.069 125.563C33.6929 126.046 35.9899 125.512 36.1995 124.372Z" fill="#A1887F"/>
<path opacity="0.2" d="M43.4285 109.191C43.4498 108.401 41.8389 107.717 39.8306 107.663C37.8222 107.608 36.1768 108.205 36.1556 108.995C36.1343 109.786 37.7452 110.47 39.7535 110.524C41.7619 110.578 43.4073 109.981 43.4285 109.191Z" fill="#A1887F"/>
<path opacity="0.2" d="M39.4614 141.464C39.4826 140.673 37.8718 139.989 35.8634 139.935C33.855 139.881 32.2097 140.478 32.1884 141.268C32.1671 142.058 33.778 142.742 35.7864 142.796C37.7948 142.851 39.4401 142.254 39.4614 141.464Z" fill="#A1887F"/>
<path opacity="0.2" d="M14.2859 122.328C15.5686 121.846 16.4715 121.091 16.3025 120.641C16.1334 120.19 14.9565 120.216 13.6737 120.698C12.391 121.179 11.4881 121.935 11.6571 122.385C11.8262 122.835 13.0031 122.809 14.2859 122.328Z" fill="#A1887F"/>
<path opacity="0.2" d="M70.692 58.4457C71.4566 58.018 71.3569 56.385 70.4693 54.7983C69.5817 53.2116 68.2423 52.272 67.4777 52.6998C66.7131 53.1275 66.8128 54.7605 67.7004 56.3472C68.588 57.9339 69.9274 58.8734 70.692 58.4457Z" fill="#A1887F"/>
<path opacity="0.2" d="M46.3872 59.5043C46.9439 58.9617 46.5527 57.6576 45.5135 56.5915C44.4744 55.5254 43.1807 55.101 42.6241 55.6436C42.0675 56.1861 42.4586 57.4902 43.4978 58.5563C44.5369 59.6224 45.8306 60.0468 46.3872 59.5043Z" fill="#A1887F"/>
<path opacity="0.08" d="M54.2984 55.0755C55.3169 54.9384 55.9039 53.0542 55.6095 50.8671C55.3151 48.6799 54.2508 47.018 53.2323 47.1551C52.2138 47.2922 51.6268 49.1764 51.9212 51.3635C52.2156 53.5507 53.2799 55.2126 54.2984 55.0755Z" fill="#A1887F"/>
<path opacity="0.08" d="M64.4735 50.2564C65.492 50.1193 66.079 48.2351 65.7846 46.048C65.4902 43.8608 64.4259 42.1989 63.4074 42.336C62.3889 42.4731 61.8019 44.3573 62.0963 46.5444C62.3907 48.7316 63.455 50.3935 64.4735 50.2564Z" fill="#A1887F"/>
<path opacity="0.08" d="M39.1263 38.3284C40.1448 38.1913 40.7318 36.3072 40.4374 34.12C40.143 31.9329 39.0787 30.2709 38.0602 30.408C37.0417 30.5451 36.4547 32.4293 36.7491 34.6164C37.0435 36.8036 38.1078 38.4655 39.1263 38.3284Z" fill="#A1887F"/>
<path opacity="0.08" d="M54.5117 18.2261C55.4912 17.0528 55.7973 15.6944 55.1955 15.192C54.5937 14.6896 53.3118 15.2335 52.3323 16.4067C51.3529 17.58 51.0467 18.9384 51.6485 19.4408C52.2503 19.9432 53.5322 19.3994 54.5117 18.2261Z" fill="#A1887F"/>
<path opacity="0.08" d="M27.7434 57.7983C28.6178 57.6775 29.1587 56.3629 28.9514 54.8621C28.7441 53.3612 27.8672 52.2424 26.9928 52.3631C26.1184 52.4839 25.5776 53.7985 25.7848 55.2994C25.9921 56.8002 26.869 57.919 27.7434 57.7983Z" fill="#A1887F"/>
<path opacity="0.08" d="M49.9553 71.9507C51.0255 71.8029 51.6871 70.1913 51.4329 68.3511C51.1788 66.5109 50.1052 65.1389 49.035 65.2867C47.9648 65.4345 47.3033 67.0461 47.5574 68.8863C47.8116 70.7265 48.8851 72.0985 49.9553 71.9507Z" fill="#A1887F"/>
<path opacity="0.08" d="M11.537 107.267C12.0857 106.845 11.7665 105.509 10.824 104.28C9.88157 103.052 8.67274 102.398 8.12402 102.819C7.57531 103.24 7.8945 104.577 8.83696 105.805C9.77941 107.033 10.9882 107.688 11.537 107.267Z" fill="#A1887F"/>
<path opacity="0.08" d="M34.5246 48.2197C35.0724 47.605 34.3804 46.0941 32.9789 44.8451C31.5774 43.596 29.9972 43.0818 29.4493 43.6964C28.9015 44.3111 29.5935 45.822 30.995 47.0711C32.3965 48.3201 33.9768 48.8344 34.5246 48.2197Z" fill="#A1887F"/>
<path opacity="0.2" d="M45.4205 40.7143C46.1673 39.0783 46.1947 37.4882 45.4816 37.1626C44.7685 36.8371 43.5849 37.8994 42.838 39.5353C42.0912 41.1713 42.0638 42.7615 42.7769 43.087C43.4901 43.4126 44.6736 42.3503 45.4205 40.7143Z" fill="#A1887F"/>
<path opacity="0.2" d="M26.9637 32.7932C28.3136 32.6009 29.3425 31.9851 29.2617 31.4177C29.1809 30.8504 28.021 30.5463 26.671 30.7385C25.321 30.9308 24.2922 31.5466 24.373 32.114C24.4538 32.6814 25.6137 32.9855 26.9637 32.7932Z" fill="#A1887F"/>
<path opacity="0.2" d="M65.2544 74.3402C66.065 73.8867 65.9582 72.1536 65.016 70.4692C64.0737 68.7848 62.6527 67.7869 61.8421 68.2403C61.0315 68.6938 61.1383 70.4269 62.0805 72.1113C63.0228 73.7957 64.4438 74.7936 65.2544 74.3402Z" fill="#A1887F"/>
<path opacity="0.08" d="M45.8006 17.052C46.7272 16.9241 47.2994 15.5243 47.0786 13.9255C46.8578 12.3268 45.9277 11.1345 45.001 11.2624C44.0744 11.3904 43.5022 12.7902 43.723 14.3889C43.9438 15.9877 44.874 17.18 45.8006 17.052Z" fill="#A1887F"/>
<path opacity="0.2" d="M64.5255 57.7559C64.9131 56.0267 64.4769 54.4568 63.5512 54.2493C62.6256 54.0419 61.5611 55.2755 61.1735 57.0046C60.786 58.7337 61.2222 60.3037 62.1478 60.5111C63.0735 60.7186 64.138 59.485 64.5255 57.7559Z" fill="#A1887F"/>
<path opacity="0.2" d="M66.345 132.747C66.9016 132.205 66.5105 130.901 65.4713 129.835C64.4321 128.769 63.1385 128.344 62.5819 128.887C62.0252 129.429 62.4164 130.733 63.4555 131.799C64.4947 132.866 65.7883 133.29 66.345 132.747Z" fill="#A1887F"/>
<path opacity="0.2" d="M37.6277 134.678C38.1201 133.556 38.0254 132.43 37.4162 132.162C36.8069 131.895 35.9139 132.588 35.4214 133.71C34.929 134.832 35.0237 135.958 35.6329 136.225C36.2422 136.493 37.1353 135.8 37.6277 134.678Z" fill="#A1887F"/>
<path opacity="0.08" d="M72.8339 125.045C73.8524 124.908 74.4394 123.024 74.1451 120.837C73.8507 118.65 72.7864 116.988 71.7679 117.125C70.7494 117.262 70.1624 119.146 70.4567 121.333C70.7511 123.52 71.8154 125.182 72.8339 125.045Z" fill="#A1887F"/>
<path opacity="0.08" d="M29.7523 138.948C30.8225 138.8 31.484 137.188 31.2299 135.348C30.9758 133.508 29.9022 132.136 28.832 132.284C27.7618 132.432 27.1003 134.043 27.3544 135.883C27.6086 137.724 28.6821 139.096 29.7523 138.948Z" fill="#A1887F"/>
<path opacity="0.2" d="M44.7213 136.09C45.5319 135.637 45.4252 133.904 44.4829 132.219C43.5406 130.535 42.1196 129.537 41.309 129.99C40.4984 130.444 40.6052 132.177 41.5475 133.861C42.4898 135.546 43.9108 136.544 44.7213 136.09Z" fill="#A1887F"/>
<path opacity="0.2" d="M82.7455 119.522C83.1331 117.793 82.6968 116.223 81.7712 116.015C80.8456 115.808 79.781 117.041 79.3935 118.77C79.0059 120.5 79.4421 122.07 80.3678 122.277C81.2934 122.484 82.358 121.251 82.7455 119.522Z" fill="#A1887F"/>
<path opacity="0.08" d="M78.4228 73.0213C79.0784 72.5123 78.6896 70.9143 77.5544 69.4521C76.4191 67.99 74.9673 67.2173 74.3116 67.7264C73.656 68.2354 74.0448 69.8334 75.1801 71.2956C76.3154 72.7577 77.7672 73.5304 78.4228 73.0213Z" fill="#A1887F"/>
<path opacity="0.2" d="M74.4148 85.3019C75.1794 84.8742 75.0797 83.2412 74.1921 81.6545C73.3045 80.0678 71.9651 79.1283 71.2005 79.556C70.4359 79.9837 70.5356 81.6167 71.4232 83.2034C72.3108 84.7901 73.6502 85.7296 74.4148 85.3019Z" fill="#A1887F"/>
<path opacity="0.2" d="M59.4826 34.8307C60.2472 34.403 60.1474 32.77 59.2598 31.1833C58.3722 29.5966 57.0328 28.6571 56.2682 29.0848C55.5036 29.5125 55.6033 31.1455 56.491 32.7322C57.3786 34.3189 58.718 35.2584 59.4826 34.8307Z" fill="#A1887F"/>
<path opacity="0.08" d="M78.1303 12.241C79.1488 12.1039 79.7358 10.2198 79.4414 8.03261C79.147 5.84545 78.0827 4.18354 77.0642 4.32063C76.0457 4.45772 75.4587 6.34189 75.7531 8.52905C76.0475 10.7162 77.1118 12.3781 78.1303 12.241Z" fill="#A1887F"/>
<path opacity="0.2" d="M88.302 58.9408C89.1126 58.4873 89.0059 56.7542 88.0636 55.0698C87.1213 53.3854 85.7003 52.3875 84.8897 52.8409C84.0791 53.2944 84.1859 55.0275 85.1282 56.7119C86.0704 58.3963 87.4914 59.3942 88.302 58.9408Z" fill="#A1887F"/>
<path opacity="0.2" d="M87.6696 83.2857C88.4802 82.8323 88.3734 81.0992 87.4311 79.4148C86.4888 77.7303 85.0678 76.7325 84.2573 77.1859C83.4467 77.6394 83.5534 79.3725 84.4957 81.0569C85.438 82.7413 86.859 83.7392 87.6696 83.2857Z" fill="#A1887F"/>
<path opacity="0.2" d="M78.1779 19.7532C78.5654 18.024 78.1292 16.4541 77.2036 16.2467C76.2779 16.0392 75.2134 17.2728 74.8259 19.0019C74.4383 20.7311 74.8745 22.301 75.8002 22.5084C76.7258 22.7159 77.7903 21.4823 78.1779 19.7532Z" fill="#A1887F"/>
<path opacity="0.2" d="M68.7505 33.3797C69.1433 32.1152 68.8957 30.9143 68.1974 30.6973C67.4991 30.4804 66.6146 31.3296 66.2217 32.5941C65.8288 33.8586 66.0765 35.0595 66.7748 35.2765C67.4731 35.4934 68.3576 34.6442 68.7505 33.3797Z" fill="#A1887F"/>
<path opacity="0.2" d="M19.9611 61.2391C20.7545 59.5012 20.7807 57.8108 20.0196 57.4633C19.2586 57.1159 17.9985 58.243 17.2051 59.9809C16.4117 61.7187 16.3855 63.4092 17.1466 63.7567C17.9076 64.1041 19.1678 62.977 19.9611 61.2391Z" fill="#A1887F"/>
<path opacity="0.2" d="M62.7694 13.8727C63.5577 13.461 63.3192 11.4469 62.2367 9.374C61.1542 7.30111 59.6376 5.95441 58.8493 6.36607C58.061 6.77773 58.2995 8.79186 59.3821 10.8647C60.4646 12.9376 61.9812 14.2843 62.7694 13.8727Z" fill="#A1887F"/>
<path d="M42.8601 100.636C40.6416 99.7414 39.3176 98.167 34.3795 97.2724C27.211 95.9723 23.2272 98.823 18.2653 98.5129C12.4684 98.1431 13.7328 95.5429 15.7128 94.5887C18.3965 93.3005 21.6289 91.9288 36.2164 96.3301C39.0671 97.1889 37.8028 95.865 37.8028 95.865C36.4072 93.9804 28.702 91.3682 21.9629 91.1893C4.36957 90.7241 9.79665 102.616 15.5696 104.179C24.575 106.612 36.9917 102.759 42.717 101.376C43.1583 101.28 43.2776 100.803 42.8601 100.636Z" fill="url(#paint9_linear_74_82)"/>
<defs>
<linearGradient id="paint0_linear_74_82" x1="44.2246" y1="0.242159" x2="44.2246" y2="136.467" gradientUnits="userSpaceOnUse">
<stop stop-color="#9E9E9E"/>
<stop offset="1" stop-color="#616161"/>
</linearGradient>
<linearGradient id="paint1_linear_74_82" x1="26.221" y1="118.766" x2="57.7601" y2="118.766" gradientUnits="userSpaceOnUse">
<stop stop-color="#9E9E9E"/>
<stop offset="1" stop-color="#616161"/>
</linearGradient>
<radialGradient id="paint2_radial_74_82" cx="0" cy="0" r="1" gradientUnits="userSpaceOnUse" gradientTransform="translate(40.0694 118.715) rotate(77.0269) scale(18.5408 47.2868)">
<stop stop-color="#616161"/>
<stop offset="1" stop-color="#616161" stop-opacity="0"/>
</radialGradient>
<linearGradient id="paint3_linear_74_82" x1="40.6833" y1="-12.326" x2="40.6833" y2="131.493" gradientUnits="userSpaceOnUse">
<stop stop-color="#E0E0E0"/>
<stop offset="1" stop-color="#9E9E9E"/>
</linearGradient>
<radialGradient id="paint4_radial_74_82" cx="0" cy="0" r="1" gradientUnits="userSpaceOnUse" gradientTransform="translate(78.909 51.6175) scale(7.46075 40.5544)">
<stop stop-color="#616161"/>
<stop offset="1" stop-color="#616161" stop-opacity="0"/>
</radialGradient>
<linearGradient id="paint5_linear_74_82" x1="57.9676" y1="0.312533" x2="57.9676" y2="122.165" gradientUnits="userSpaceOnUse">
<stop stop-color="#9E9E9E"/>
<stop offset="1" stop-color="#616161"/>
</linearGradient>
<linearGradient id="paint6_linear_74_82" x1="34.8112" y1="11.8955" x2="47.9555" y2="35.7794" gradientUnits="userSpaceOnUse">
<stop stop-color="#9E9E9E"/>
<stop offset="1" stop-color="#616161"/>
</linearGradient>
<linearGradient id="paint7_linear_74_82" x1="29.6109" y1="14.0233" x2="29.6109" y2="71.9762" gradientUnits="userSpaceOnUse">
<stop stop-color="#E0E0E0"/>
<stop offset="1" stop-color="#9E9E9E"/>
</linearGradient>
<linearGradient id="paint8_linear_74_82" x1="9.70001" y1="58.8797" x2="25.1046" y2="74.9904" gradientUnits="userSpaceOnUse">
<stop stop-color="#9E9E9E"/>
<stop offset="1" stop-color="#616161"/>
</linearGradient>
<linearGradient id="paint9_linear_74_82" x1="22.6737" y1="86.3061" x2="27.8921" y2="103.899" gradientUnits="userSpaceOnUse">
<stop stop-color="#9E9E9E"/>
<stop offset="1" stop-color="#616161"/>
</linearGradient>
</defs>
</svg>
